<svg width="80" height="80" viewBox="0 0 80 80" fill="none" xmlns="http://www.w3.org/2000/svg">
<rect width="80" height="80" rx="5.33333" fill="#4353FF"/>
<path d="M52.1882 33.3595C52.1882 33.3595 48.4401 45.1022 48.1584 46.0989C48.0501 45.1022 45.3203 24 45.3203 24C38.9289 24 35.5274 28.5281 33.7292 33.3595C33.7292 33.3595 29.1794 45.1456 28.8111 46.1422C28.7895 45.2106 28.1178 33.4895 28.1178 33.4895C27.7278 27.5965 22.3548 24.0217 18 24.0217L23.2431 56C29.9377 55.9783 33.5342 51.4502 35.4191 46.6405C35.4191 46.6405 39.4272 36.241 39.6006 35.7644C39.6439 36.2194 42.4821 56 42.4821 56C49.1767 56 52.7949 51.7536 54.7448 47.1171L64.1043 24C57.4746 24 53.9865 28.5281 52.1882 33.3595Z" fill="white"/>
</svg>
